<svg width="327" height="295" viewBox="0 0 327 295" fill="none" xmlns="http://www.w3.org/2000/svg">
<path d="M95.8223 0.511719C95.8891 0.539104 95.9873 0.583455 96.1191 0.646484C96.3816 0.771933 96.7557 0.960705 97.2373 1.21191C98.1992 1.71367 99.5755 2.45599 101.323 3.41211C104.818 5.32406 109.787 8.0897 115.863 11.5039C128.016 18.3322 144.595 27.7509 162.666 38.1123C209.009 64.6822 237.031 80.6954 253.697 90.0654C262.03 94.75 267.529 97.7766 271.061 99.6328C272.825 100.56 274.106 101.199 275.007 101.607C275.457 101.811 275.821 101.961 276.106 102.061C276.375 102.154 276.628 102.225 276.835 102.225C277.207 102.225 277.446 101.957 277.573 101.768C277.716 101.556 277.834 101.277 277.937 100.965C278.143 100.334 278.321 99.4483 278.469 98.3867C278.765 96.2562 278.947 93.3334 278.947 90.1299C278.947 86.3803 279.186 83.6843 279.625 82.0742C279.848 81.2543 280.101 80.8076 280.319 80.6162C280.415 80.5327 280.489 80.5101 280.551 80.5078C280.619 80.5053 280.73 80.5259 280.891 80.625C281.481 80.9877 282.06 81.8786 282.46 83.1367C282.852 84.3709 283.04 85.8639 282.925 87.3057C282.282 95.4371 282.258 100.361 283.933 104.099C285.619 107.863 288.988 110.344 294.8 113.734C297.946 115.569 300.8 117.493 302.862 119.108C303.895 119.917 304.718 120.641 305.277 121.231C305.558 121.527 305.761 121.779 305.892 121.981C305.956 122.082 305.998 122.163 306.022 122.225C306.045 122.281 306.047 122.308 306.047 122.311C306.047 122.709 306.029 123.028 305.985 123.278C305.941 123.532 305.877 123.672 305.817 123.747C305.749 123.833 305.567 123.981 304.819 123.778C304.092 123.582 303.025 123.101 301.468 122.271C299.92 121.447 297.922 120.295 295.341 118.779C292.8 117.287 290.372 116.037 288.502 115.227C287.57 114.822 286.762 114.521 286.142 114.355C285.834 114.273 285.55 114.218 285.311 114.208C285.19 114.203 285.063 114.208 284.94 114.235C284.82 114.263 284.672 114.319 284.55 114.441C284.476 114.515 284.429 114.598 284.401 114.655C284.371 114.718 284.345 114.785 284.323 114.852C284.28 114.985 284.24 115.149 284.202 115.334C284.126 115.706 284.05 116.209 283.976 116.82C283.826 118.046 283.676 119.747 283.533 121.796C283.247 125.895 282.99 131.409 282.829 137.35L282.244 158.931L282.236 159.225L282.489 159.374L302.692 171.357C308.25 174.653 313.592 177.765 317.72 180.123C319.783 181.302 321.545 182.294 322.88 183.026C324.2 183.751 325.134 184.24 325.521 184.395C326.106 184.629 326.394 184.996 326.475 185.348C326.554 185.694 326.455 186.135 326.042 186.584C326.033 186.587 326.019 186.593 325.997 186.598C325.926 186.613 325.812 186.622 325.645 186.611C325.309 186.59 324.839 186.499 324.237 186.33C323.039 185.994 321.405 185.376 319.445 184.519C315.531 182.806 310.377 180.167 304.931 177.013L285.084 165.521L284.353 165.097L284.334 165.941L283.057 222.2C282.705 237.673 282.491 252.384 282.43 263.621C282.399 269.239 282.406 273.992 282.453 277.537C282.494 280.619 282.565 282.827 282.674 283.889L282.723 284.272C283.106 286.619 283.793 288.234 285.393 289.205C286.936 290.142 289.24 290.414 292.646 290.414C294.943 290.414 297.202 290.696 298.983 291.146C299.875 291.371 300.633 291.634 301.212 291.918C301.651 292.133 301.951 292.344 302.136 292.531C302.104 292.546 302.068 292.563 302.027 292.579C301.619 292.74 300.907 292.905 299.861 293.062C297.785 293.375 294.538 293.64 290.138 293.854C281.343 294.28 268.002 294.5 250.347 294.5C232.692 294.5 219.35 294.28 210.556 293.854C206.155 293.64 202.909 293.375 200.833 293.062C199.787 292.905 199.075 292.74 198.667 292.579C198.641 292.569 198.618 292.557 198.596 292.548C198.663 292.502 198.749 292.449 198.861 292.392C199.149 292.246 199.545 292.097 200.046 291.949C201.046 291.655 202.411 291.385 204.05 291.156C207.324 290.699 211.638 290.414 216.195 290.414C220.115 290.414 223.127 290.394 225.427 290.278C227.716 290.163 229.352 289.952 230.494 289.548C231.671 289.132 232.373 288.491 232.703 287.524C233.012 286.622 232.972 285.487 232.863 284.151C232.253 276.643 232.327 245.518 232.733 216.41C232.936 201.864 233.222 187.835 233.545 177.532C233.707 172.38 233.878 168.164 234.053 165.282C234.066 165.067 234.08 164.859 234.093 164.659C234.131 165.194 234.171 165.784 234.208 166.429C234.397 169.698 234.566 174.328 234.705 179.978C234.984 191.276 235.147 206.643 235.125 223.348C235.103 240.058 235.295 255.592 235.621 267.158C235.784 272.941 235.981 277.736 236.202 281.191C236.313 282.918 236.429 284.317 236.552 285.34C236.613 285.851 236.676 286.276 236.742 286.604C236.803 286.907 236.88 287.202 236.998 287.393H236.999C237.406 288.048 238.215 288.521 239.269 288.878C240.341 289.241 241.762 289.513 243.514 289.704C247.02 290.086 251.938 290.15 258.255 289.897L277.189 289.142L277.666 289.123L277.67 288.646L278.184 225.73L278.699 162.812L278.701 162.521L278.45 162.375L248.558 144.992C212.264 123.886 186.76 109.145 170.135 99.6807C161.823 94.9488 155.727 91.5338 151.61 89.3018C149.553 88.1861 147.985 87.364 146.88 86.8193C146.328 86.5475 145.886 86.3411 145.553 86.2021C145.386 86.1329 145.239 86.0772 145.116 86.0381C145.035 86.0123 144.936 85.9841 144.836 85.9717L144.736 85.9658C144.443 85.9658 144.299 86.1881 144.271 86.2334C144.222 86.31 144.192 86.3913 144.173 86.4512C144.133 86.5782 144.1 86.7434 144.071 86.9287C144.012 87.3063 143.955 87.8541 143.9 88.5547C143.79 89.96 143.685 92.0248 143.584 94.6738C143.383 99.9741 143.201 107.636 143.049 117.086C142.744 135.988 142.556 162.057 142.556 190.732V294.5H92.5859L91.8896 255.764L91.1865 216.536L91.1719 215.701L90.4424 216.109L71.2832 226.831L52.124 237.555L51.876 237.694L51.8682 237.979L51.1455 266.481L50.4355 294.5H0.5V105.835L12.3643 99.6885C19.0471 96.2258 30.2614 90.0501 37.293 85.957C51.273 77.8235 65.1929 69.7944 75.6787 63.7988C80.9218 60.801 85.3052 58.3115 88.4082 56.5723C89.9599 55.7025 91.1896 55.021 92.0459 54.5576C92.4743 54.3258 92.8064 54.1502 93.0371 54.0332C93.1529 53.9745 93.2387 53.933 93.2959 53.9072C93.3094 53.9011 93.3202 53.8959 93.3281 53.8926C93.3545 53.8871 93.3736 53.8821 93.3809 53.8799C93.4091 53.8713 93.4355 53.8617 93.4561 53.8535C93.4978 53.8368 93.545 53.8152 93.5938 53.792C93.6929 53.7447 93.8253 53.6765 93.9854 53.5918C94.3069 53.4218 94.7602 53.1733 95.3281 52.8555C96.4655 52.219 98.0748 51.2994 100.036 50.166C103.959 47.899 109.298 44.7728 115.105 41.334L136.222 28.8291L136.927 28.4111L136.232 27.9756L126.364 21.7783C120.925 18.3622 111.587 13.0849 105.602 10.0469C102.635 8.54111 99.945 6.89745 98.0039 5.4668C97.0318 4.75033 96.2606 4.09591 95.7373 3.54785C95.4752 3.27336 95.2863 3.03671 95.166 2.8418C95.0397 2.63708 95.0186 2.52659 95.0186 2.49219C95.0186 1.87364 95.1558 1.33495 95.3525 0.96875C95.5301 0.638232 95.7032 0.530506 95.8086 0.505859C95.8129 0.507577 95.8174 0.509712 95.8223 0.511719ZM90.1279 114.009C89.9924 114.013 89.841 114.05 89.7021 114.091C89.5532 114.135 89.3786 114.197 89.1826 114.272C88.7895 114.425 88.2863 114.643 87.6914 114.919C86.5003 115.471 84.9154 116.263 83.0518 117.233C79.3232 119.176 74.4614 121.844 69.3633 124.769L50.8428 135.396L50.5908 135.54V158.193C50.5908 166.306 50.81 171.927 51.3242 175.521C51.5805 177.313 51.916 178.647 52.3604 179.543C52.8056 180.441 53.431 181.022 54.291 181.009L54.292 181.01C54.5874 181.005 54.9768 180.916 55.4121 180.782C55.8604 180.645 56.4029 180.446 57.0225 180.196C58.2625 179.696 59.8374 178.978 61.6367 178.1C65.2372 176.341 69.7583 173.925 74.333 171.275L90.9375 161.66L91.1777 161.521L91.1865 161.243L91.9219 137.85C92.124 131.407 92.0821 125.551 91.8496 121.305C91.7335 119.185 91.5693 117.451 91.3613 116.243C91.2581 115.644 91.1394 115.146 91 114.79C90.9313 114.615 90.845 114.44 90.7305 114.303C90.6177 114.167 90.4166 113.999 90.1279 114.009ZM278.947 109.505L278.697 109.36L260.177 98.6494C231.825 82.2563 160.054 41.4337 149.829 35.876L149.035 35.4502L143.287 32.4395L142.556 32.0557V78.9707L142.803 79.1152L172.819 96.6807C205.294 115.684 230.705 130.258 248.229 139.943C256.989 144.786 263.784 148.409 268.505 150.755C270.864 151.927 272.714 152.785 274.038 153.316C274.698 153.581 275.241 153.77 275.658 153.876C275.866 153.929 276.059 153.965 276.229 153.975C276.378 153.983 276.597 153.979 276.788 153.864C276.962 153.76 277.08 153.597 277.16 153.458C277.246 153.309 277.321 153.13 277.389 152.935C277.525 152.542 277.65 152.023 277.767 151.404C278 150.164 278.209 148.46 278.383 146.424C278.731 142.347 278.947 136.891 278.947 131.038V109.505Z" fill="#2C2C2C" stroke="black"/>
</svg>
